<svg width="42" height="42" viewBox="0 0 42 42" fill="none" xmlns="http://www.w3.org/2000/svg">
<rect width="42" height="42" rx="21" fill="url(#paint0_linear)"/>
<path d="M18.9222 24.9326C19.2595 24.9326 19.533 24.6591 19.533 24.3218C19.533 23.9844 19.2595 23.7109 18.9222 23.7109C18.5848 23.7109 18.3113 23.9844 18.3113 24.3218C18.3113 24.6591 18.5848 24.9326 18.9222 24.9326Z" fill="#3FB7B7"/>
<path d="M17.2109 24.9326C17.5483 24.9326 17.8218 24.6591 17.8218 24.3218C17.8218 23.9844 17.5483 23.7109 17.2109 23.7109C16.8736 23.7109 16.6001 23.9844 16.6001 24.3218C16.6001 24.6591 16.8736 24.9326 17.2109 24.9326Z" fill="#3FB7B7"/>
<path d="M15.5001 24.9326C15.8375 24.9326 16.111 24.6591 16.111 24.3218C16.111 23.9844 15.8375 23.7109 15.5001 23.7109C15.1628 23.7109 14.8893 23.9844 14.8893 24.3218C14.8893 24.6591 15.1628 24.9326 15.5001 24.9326Z" fill="#3FB7B7"/>
<path d="M30.6555 11.7379H18.9222C18.1803 11.7394 17.5792 12.3402 17.5777 13.0819V17.6026H11.3444C10.6025 17.6041 10.0015 18.2049 10 18.9466V26.5312C10.0015 27.2728 10.6025 27.8736 11.3442 27.8751L13.1724 27.8686V29.8957C13.1724 30.0393 13.2565 30.1698 13.3873 30.2292C13.518 30.2888 13.6718 30.2661 13.7801 30.1717L16.3739 27.8671L23.0778 27.8754C23.8196 27.8739 24.4207 27.2731 24.4222 26.5314V22.0065L25.5953 22.0075L28.2196 24.2967C28.3279 24.3913 28.4814 24.4138 28.6124 24.3543C28.7432 24.2947 28.8273 24.1644 28.8273 24.0206V22.0088L30.657 22.0003H30.6556C31.3974 21.9988 31.9985 21.3982 32 20.6566V13.0818C31.9985 12.3402 31.3974 11.7394 30.6555 11.7379ZM23.6888 26.5314C23.6888 26.6993 23.6211 26.8504 23.5092 26.9628C23.3967 27.0745 23.2457 27.1423 23.0777 27.1423H23.0773L16.236 27.1342C16.1485 27.1344 16.0615 27.167 15.9955 27.2246L13.906 29.0895V27.504C13.906 27.3028 13.7424 27.1383 13.5413 27.1374L11.3464 27.1425H11.3444C11.1765 27.1425 11.0254 27.0748 10.913 26.9631C10.801 26.8502 10.7333 26.6991 10.7333 26.5314V18.9466C10.7333 18.7787 10.8011 18.6276 10.913 18.5154C11.0254 18.4034 11.1765 18.3358 11.3444 18.3355H23.0777C23.2457 18.3358 23.3967 18.4034 23.5092 18.5154C23.6212 18.6279 23.6888 18.7789 23.6888 18.9466V26.5314V26.5314ZM31.087 21.0876C30.9745 21.1996 30.8235 21.2671 30.6555 21.2673H30.6538L28.459 21.2776C28.2575 21.2783 28.094 21.4428 28.094 21.644V23.2142L25.9739 21.3648C25.9076 21.3073 25.8211 21.2746 25.7334 21.2746L24.4222 21.2731V18.9465C24.4207 18.2048 23.8196 17.604 23.0777 17.6025H18.3111V13.0818C18.3111 12.9139 18.3788 12.7628 18.4907 12.6507C18.6032 12.5387 18.7542 12.471 18.9222 12.4707H30.6555C30.8234 12.471 30.9745 12.5387 31.0869 12.6507C31.1989 12.7628 31.2666 12.9141 31.2666 13.0818V20.6564H31.2666C31.2666 20.8244 31.1989 20.9752 31.087 21.0876Z" fill="#3FB7B7"/>
<defs>
<linearGradient id="paint0_linear" x1="0" y1="0" x2="42" y2="42" gradientUnits="userSpaceOnUse">
<stop stop-color="#72FFFF"/>
<stop offset="1" stop-color="white"/>
</linearGradient>
</defs>
</svg>
