<svg width="42" height="42" viewBox="0 0 42 42" fill="none" xmlns="http://www.w3.org/2000/svg">
<rect width="42" height="42" rx="21" fill="url(#paint0_linear)"/>
<path d="M27.8299 16.8619L25.4979 14.5299C25.4498 14.4815 25.3892 14.4474 25.3229 14.4315C25.2565 14.4157 25.1871 14.4186 25.1223 14.4401C25.0575 14.4615 25 14.5006 24.9562 14.553C24.9125 14.6053 24.8842 14.6688 24.8746 14.7364C24.836 15.006 24.7231 15.2595 24.5486 15.4686C24.3741 15.6777 24.1448 15.8341 23.8864 15.9202C23.628 16.0063 23.3507 16.0187 23.0856 15.9562C22.8206 15.8936 22.5782 15.7584 22.3856 15.5658C22.193 15.3732 22.0578 15.1308 21.9952 14.8658C21.9327 14.6007 21.9451 14.3234 22.0312 14.065C22.1173 13.8067 22.2737 13.5774 22.4828 13.4028C22.6919 13.2283 22.9454 13.1154 23.215 13.0768C23.2826 13.0672 23.3461 13.0389 23.3984 12.9952C23.4508 12.9514 23.4899 12.8939 23.5113 12.8291C23.5328 12.7644 23.5357 12.6949 23.5199 12.6285C23.504 12.5622 23.4699 12.5016 23.4215 12.4535L21.0895 10.1215C21.0207 10.0528 20.9275 10.0142 20.8302 10.0142C20.733 10.0142 20.6398 10.0528 20.571 10.1215L18.5459 12.1459C18.4462 11.7727 18.25 11.4323 17.977 11.159C17.704 10.8857 17.3638 10.6891 16.9908 10.589C16.6177 10.4888 16.2248 10.4887 15.8516 10.5886C15.4785 10.6884 15.1382 10.8848 14.865 11.1579C14.5918 11.431 14.3954 11.7712 14.2954 12.1444C14.1954 12.5175 14.1955 12.9104 14.2955 13.2835C14.3955 13.6566 14.5921 13.9968 14.8653 14.2699C15.1385 14.5429 15.4788 14.7392 15.852 14.839L13.8291 16.8619C13.7604 16.9307 13.7217 17.024 13.7217 17.1212C13.7217 17.2184 13.7604 17.3117 13.8291 17.3804L15.8527 19.4066C15.4085 19.5259 15.0128 19.7815 14.7214 20.1374C14.43 20.4933 14.2574 20.9315 14.228 21.3906C14.1986 21.8496 14.3138 22.3063 14.5574 22.6965C14.801 23.0867 15.1608 23.3906 15.5862 23.5657L14.73 26.0352C14.6163 26.2915 14.5628 26.5704 14.5737 26.8505C14.5847 27.1306 14.6597 27.4045 14.7931 27.6511L16.0801 30.6944C16.0848 30.7062 16.0903 30.7175 16.0966 30.7285C16.1867 30.8937 16.2337 31.079 16.2333 31.2672V31.6192C16.2333 31.7164 16.272 31.8097 16.3407 31.8785C16.4095 31.9472 16.5027 31.9858 16.6 31.9858C16.6972 31.9858 16.7905 31.9472 16.8593 31.8785C16.928 31.8097 16.9667 31.7164 16.9667 31.6192V31.2672C16.9663 30.9622 16.8907 30.6619 16.7467 30.393L15.4593 27.3497C15.4542 27.3371 15.4483 27.3249 15.4417 27.313C15.3577 27.1597 15.3109 26.9886 15.3053 26.8138C15.2997 26.639 15.3354 26.4654 15.4094 26.3069L16.3063 23.7256C16.3448 23.7256 16.3826 23.7311 16.4214 23.7311C16.9054 23.7315 17.3759 23.5721 17.7599 23.2775C18.1439 22.983 18.4198 22.5699 18.5448 22.1023L19.1667 22.7216V26.4858C19.1667 26.5831 19.2053 26.6764 19.2741 26.7451C19.3428 26.8139 19.4361 26.8525 19.5333 26.8525C19.6306 26.8525 19.7238 26.8139 19.7926 26.7451C19.8614 26.6764 19.9 26.5831 19.9 26.4858V21.3525C19.9 21.0608 20.0159 20.781 20.2222 20.5747C20.4285 20.3684 20.7083 20.2525 21 20.2525C21.2917 20.2525 21.5715 20.3684 21.7778 20.5747C21.9841 20.781 22.1 21.0608 22.1 21.3525V25.7932C22.1006 26.3054 22.2199 26.8106 22.4483 27.269L22.5825 27.5382C22.76 27.8947 22.8523 28.2876 22.8523 28.6858C22.8523 29.0841 22.76 29.477 22.5825 29.8335L22.2159 30.5668C22.1397 30.7197 22.1001 30.8881 22.1 31.0589V31.6192C22.1 31.7164 22.1386 31.8097 22.2074 31.8785C22.2762 31.9472 22.3694 31.9858 22.4667 31.9858C22.5639 31.9858 22.6572 31.9472 22.7259 31.8785C22.7947 31.8097 22.8333 31.7164 22.8333 31.6192V31.0589C22.833 31.0022 22.8455 30.9462 22.87 30.895L23.2367 30.1617C23.4647 29.7032 23.5834 29.1981 23.5834 28.686C23.5834 28.174 23.4647 27.6689 23.2367 27.2104L23.1025 26.9412C22.971 26.6772 22.8858 26.3926 22.8506 26.0997C23.0887 26.3387 23.3718 26.5283 23.6834 26.6575C23.9951 26.7867 24.3293 26.853 24.6667 26.8525C24.9584 26.8525 25.2382 26.7366 25.4445 26.5303C25.6508 26.324 25.7667 26.0443 25.7667 25.7525V23.6625C26.2399 23.5454 26.6608 23.2743 26.9631 22.8918C27.2654 22.5093 27.4319 22.0372 27.4365 21.5497C27.441 21.0622 27.2834 20.587 26.9884 20.1989C26.6933 19.8108 26.2776 19.5318 25.8066 19.4059L27.8299 17.3797C27.8984 17.311 27.9369 17.2179 27.9369 17.1208C27.9369 17.0238 27.8984 16.9307 27.8299 16.8619ZM24.6667 26.1192C24.1806 26.1186 23.7146 25.9253 23.3709 25.5816C23.0273 25.2379 22.8339 24.7719 22.8333 24.2858V22.3792L23.1135 22.099C23.229 22.5333 23.4751 22.9215 23.8185 23.2114C24.1618 23.5012 24.5859 23.6787 25.0333 23.7197V25.7525C25.0333 25.8498 24.9947 25.943 24.9259 26.0118C24.8572 26.0805 24.7639 26.1192 24.6667 26.1192ZM24.7191 19.4579C24.6641 19.5123 24.6277 19.5828 24.6151 19.6591C24.6025 19.7354 24.6144 19.8138 24.6491 19.883C24.6837 19.9522 24.7394 20.0086 24.8081 20.0442C24.8768 20.0798 24.955 20.0928 25.0315 20.0813C25.3361 20.0382 25.6466 20.0919 25.919 20.235C26.1914 20.3781 26.4119 20.6031 26.5493 20.8784C26.6867 21.1537 26.7341 21.4652 26.6847 21.7689C26.6353 22.0726 26.4917 22.353 26.2741 22.5706C26.0566 22.7881 25.7761 22.9317 25.4724 22.9811C25.1688 23.0305 24.8572 22.9831 24.582 22.8457C24.3067 22.7083 24.0816 22.4878 23.9385 22.2154C23.7955 21.943 23.7417 21.6326 23.7848 21.3279C23.7964 21.2514 23.7834 21.1732 23.7478 21.1045C23.7121 21.0359 23.6557 20.9802 23.5865 20.9455C23.5174 20.9109 23.439 20.899 23.3626 20.9115C23.2863 20.9241 23.2159 20.9605 23.1615 21.0155L22.8333 21.3444C22.8328 21.1037 22.7849 20.8654 22.6922 20.6432C22.5996 20.4209 22.4641 20.2191 22.2935 20.0493C22.1229 19.8794 21.9205 19.7448 21.6979 19.6532C21.4752 19.5615 21.2367 19.5146 20.996 19.5151C20.7552 19.5157 20.5169 19.5636 20.2947 19.6562C20.0725 19.7489 19.8706 19.8844 19.7008 20.055C19.3577 20.3995 19.1656 20.8663 19.1667 21.3525V21.6847L18.4946 21.0126C18.4402 20.9576 18.3698 20.9212 18.2934 20.9086C18.2171 20.896 18.1387 20.9079 18.0695 20.9426C18.0003 20.9773 17.9439 21.0329 17.9083 21.1016C17.8727 21.1703 17.8597 21.2485 17.8712 21.325C17.9143 21.6296 17.8606 21.9401 17.7175 22.2125C17.5745 22.4849 17.3494 22.7054 17.0741 22.8428C16.7988 22.9802 16.4873 23.0276 16.1836 22.9782C15.88 22.9288 15.5995 22.7852 15.3819 22.5676C15.1644 22.3501 15.0208 22.0696 14.9714 21.7659C14.922 21.4623 14.9694 21.1508 15.1068 20.8755C15.2442 20.6002 15.4647 20.3751 15.7371 20.2321C16.0095 20.089 16.3199 20.0352 16.6246 20.0783C16.7011 20.09 16.7794 20.0771 16.8481 20.0415C16.9169 20.0059 16.9726 19.9495 17.0073 19.8803C17.0421 19.8111 17.054 19.7327 17.0414 19.6563C17.0288 19.5799 16.9924 19.5094 16.9373 19.455L14.6064 17.1212L16.9399 14.7892C16.9949 14.7348 17.0313 14.6644 17.0439 14.588C17.0565 14.5117 17.0446 14.4333 17.0099 14.3641C16.9753 14.295 16.9196 14.2385 16.8509 14.2029C16.7822 14.1673 16.704 14.1543 16.6275 14.1658C16.3233 14.2084 16.0134 14.1543 15.7415 14.0112C15.4697 13.8682 15.2496 13.6434 15.1124 13.3686C14.9751 13.0938 14.9276 12.7828 14.9766 12.4795C15.0255 12.1763 15.1685 11.896 15.3852 11.6784C15.6648 11.4121 16.0361 11.2635 16.4222 11.2635C16.8083 11.2635 17.1795 11.4121 17.4591 11.6784C17.6196 11.8393 17.7404 12.0352 17.8122 12.2508C17.884 12.4664 17.9047 12.6957 17.8727 12.9206C17.8612 12.9972 17.8741 13.0754 17.9098 13.144C17.9454 13.2127 18.0018 13.2684 18.071 13.3031C18.1402 13.3377 18.2185 13.3496 18.2949 13.3371C18.3712 13.3245 18.4416 13.2881 18.496 13.233L20.8313 10.9003L22.4744 12.5437C22.1568 12.6954 21.8802 12.9211 21.6679 13.2018C21.4556 13.4825 21.3137 13.81 21.2542 14.1569C21.1947 14.5038 21.2192 14.8599 21.3258 15.1953C21.4324 15.5307 21.618 15.8357 21.8668 16.0846C22.1157 16.3334 22.4207 16.519 22.7561 16.6256C23.0915 16.7322 23.4476 16.7568 23.7945 16.6972C24.1414 16.6377 24.4689 16.4959 24.7496 16.2835C25.0303 16.0712 25.256 15.7946 25.4077 15.477L27.0511 17.1201L24.7191 19.4579Z" fill="#6D6BCF"/>
<path d="M31.6333 17.686H29.4333C29.3361 17.686 29.2428 17.6473 29.174 17.5786C29.1053 17.5098 29.0667 17.4165 29.0667 17.3193C29.0667 17.2221 29.1053 17.1288 29.174 17.06C29.2428 16.9913 29.3361 16.9526 29.4333 16.9526H31.6333C31.7306 16.9526 31.8238 16.9913 31.8926 17.06C31.9614 17.1288 32 17.2221 32 17.3193C32 17.4165 31.9614 17.5098 31.8926 17.5786C31.8238 17.6473 31.7306 17.686 31.6333 17.686Z" fill="#6D6BCF"/>
<path d="M29.037 13.4692C28.9563 13.4692 28.8778 13.4426 28.8138 13.3934C28.7498 13.3443 28.7037 13.2754 28.6828 13.1974C28.662 13.1195 28.6674 13.0368 28.6983 12.9622C28.7291 12.8877 28.7838 12.8254 28.8537 12.785L30.7603 11.685C30.8445 11.6371 30.9442 11.6245 31.0376 11.6499C31.1311 11.6753 31.2107 11.7366 31.2591 11.8204C31.3075 11.9043 31.3208 12.0039 31.2961 12.0975C31.2713 12.1911 31.2105 12.2711 31.127 12.3201L29.2203 13.4201C29.1646 13.4524 29.1014 13.4693 29.037 13.4692V13.4692Z" fill="#6D6BCF"/>
<path d="M30.9418 23.0025C30.8774 23.0027 30.8141 22.9857 30.7584 22.9534L28.8518 21.8534C28.8097 21.8295 28.7728 21.7975 28.7432 21.7593C28.7136 21.7211 28.6918 21.6774 28.6791 21.6307C28.6665 21.584 28.6631 21.5353 28.6694 21.4874C28.6756 21.4394 28.6913 21.3932 28.7154 21.3513C28.7396 21.3094 28.7718 21.2727 28.8103 21.2434C28.8487 21.214 28.8925 21.1925 28.9393 21.1801C28.986 21.1678 29.0348 21.1648 29.0827 21.1713C29.1306 21.1779 29.1767 21.1939 29.2184 21.2183L31.1251 22.3183C31.195 22.3587 31.2496 22.421 31.2805 22.4955C31.3114 22.5701 31.3168 22.6528 31.2959 22.7308C31.275 22.8087 31.229 22.8776 31.165 22.9267C31.1009 22.9759 31.0225 23.0025 30.9418 23.0025V23.0025Z" fill="#6D6BCF"/>
<path d="M12.5667 17.686H10.3667C10.2694 17.686 10.1762 17.6473 10.1074 17.5786C10.0386 17.5098 10 17.4165 10 17.3193C10 17.2221 10.0386 17.1288 10.1074 17.06C10.1762 16.9913 10.2694 16.9526 10.3667 16.9526H12.5667C12.6639 16.9526 12.7572 16.9913 12.8259 17.06C12.8947 17.1288 12.9333 17.2221 12.9333 17.3193C12.9333 17.4165 12.8947 17.5098 12.8259 17.5786C12.7572 17.6473 12.6639 17.686 12.5667 17.686Z" fill="#6D6BCF"/>
<path d="M12.963 13.4692C12.8986 13.4693 12.8354 13.4524 12.7797 13.4201L10.873 12.3201C10.7895 12.2711 10.7287 12.1911 10.704 12.0975C10.6792 12.0039 10.6925 11.9043 10.7409 11.8204C10.7893 11.7366 10.8689 11.6753 10.9624 11.6499C11.0558 11.6245 11.1555 11.6371 11.2397 11.685L13.1463 12.785C13.2162 12.8254 13.2709 12.8877 13.3017 12.9622C13.3326 13.0368 13.338 13.1195 13.3172 13.1974C13.2963 13.2754 13.2502 13.3443 13.1862 13.3934C13.1222 13.4426 13.0437 13.4692 12.963 13.4692Z" fill="#6D6BCF"/>
<path d="M11.0582 23.0025C10.9775 23.0025 10.899 22.9759 10.835 22.9267C10.7709 22.8776 10.7249 22.8087 10.704 22.7308C10.6831 22.6528 10.6886 22.5701 10.7194 22.4955C10.7503 22.421 10.8049 22.3587 10.8748 22.3183L12.7815 21.2183C12.8232 21.1939 12.8694 21.1779 12.9173 21.1713C12.9652 21.1648 13.0139 21.1678 13.0607 21.1801C13.1074 21.1925 13.1513 21.214 13.1897 21.2434C13.2281 21.2727 13.2603 21.3094 13.2845 21.3513C13.3087 21.3932 13.3243 21.4394 13.3306 21.4874C13.3368 21.5353 13.3335 21.584 13.3208 21.6307C13.3081 21.6774 13.2864 21.7211 13.2567 21.7593C13.2271 21.7975 13.1902 21.8295 13.1482 21.8534L11.2415 22.9534C11.1858 22.9857 11.1226 23.0027 11.0582 23.0025Z" fill="#6D6BCF"/>
<defs>
<linearGradient id="paint0_linear" x1="0" y1="0" x2="42" y2="42" gradientUnits="userSpaceOnUse">
<stop stop-color="#A19FFF"/>
<stop offset="1" stop-color="#FDFDFF"/>
</linearGradient>
</defs>
</svg>
