<svg width="42" height="42" viewBox="0 0 42 42" fill="none" xmlns="http://www.w3.org/2000/svg">
<rect width="42" height="42" rx="21" fill="url(#paint0_linear)"/>
<path d="M21 31.2527C20.9537 31.2526 20.9079 31.2423 20.866 31.2226C20.8241 31.2028 20.7871 31.174 20.7577 31.1383L10.0719 18.177C10.034 18.131 10.0099 18.0753 10.0026 18.0161C9.99516 17.957 10.0047 17.897 10.0301 17.8431C10.0555 17.7893 10.0957 17.7437 10.146 17.7118C10.1963 17.6799 10.2546 17.6629 10.3142 17.6628H31.6858C31.7453 17.6629 31.8037 17.6799 31.854 17.7118C31.9043 17.7437 31.9445 17.7893 31.9699 17.8431C31.9953 17.897 32.0048 17.957 31.9974 18.0161C31.99 18.0753 31.966 18.131 31.9281 18.177L21.2423 31.1383C21.2128 31.174 21.1758 31.2028 21.1339 31.2226C21.0921 31.2423 21.0463 31.2526 21 31.2527ZM10.9808 18.2914L21 30.4443L31.0192 18.2914H10.9808Z" fill="#D88151"/>
<path d="M21 31.2526C20.9375 31.2526 20.8765 31.234 20.8247 31.1992C20.7728 31.1644 20.7326 31.1149 20.7089 31.0571L15.4116 18.0962C15.3921 18.0484 15.3847 17.9967 15.3899 17.9454C15.3952 17.8941 15.413 17.8449 15.4417 17.8021C15.4705 17.7593 15.5093 17.7242 15.5548 17.7C15.6003 17.6757 15.6511 17.6631 15.7027 17.6631H26.2973C26.3489 17.6631 26.3996 17.6757 26.4451 17.7C26.4906 17.7242 26.5295 17.7593 26.5582 17.8021C26.587 17.8449 26.6048 17.8941 26.61 17.9454C26.6153 17.9967 26.6078 18.0484 26.5883 18.0962L21.291 31.0571C21.2674 31.1149 21.2271 31.1644 21.1753 31.1992C21.1235 31.234 21.0624 31.2526 21 31.2526V31.2526ZM16.1706 18.2913L21 30.1086L25.8293 18.2913H16.1706Z" fill="#D88151"/>
<path d="M31.6858 18.2914H10.3142C10.2568 18.2913 10.2004 18.2756 10.1513 18.2458C10.1022 18.216 10.0622 18.1733 10.0356 18.1224C10.0091 18.0715 9.99697 18.0143 10.0006 17.9569C10.0043 17.8996 10.0236 17.8444 10.0565 17.7973L13.4885 12.8818C13.5175 12.8403 13.556 12.8064 13.6009 12.783C13.6458 12.7596 13.6956 12.7473 13.7462 12.7473H28.2538C28.3044 12.7473 28.3542 12.7596 28.3991 12.783C28.444 12.8064 28.4825 12.8403 28.5115 12.8818L31.9435 17.7973C31.9764 17.8444 31.9957 17.8996 31.9994 17.9569C32.003 18.0143 31.9909 18.0715 31.9644 18.1224C31.9378 18.1733 31.8978 18.216 31.8487 18.2458C31.7996 18.2756 31.7432 18.2913 31.6858 18.2914V18.2914ZM10.917 17.6628H31.083L28.09 13.3759H13.91L10.917 17.6628Z" fill="#D88151"/>
<path d="M26.2973 18.2914H15.7026C15.6497 18.2912 15.5977 18.2776 15.5515 18.252C15.5052 18.2263 15.4661 18.1894 15.4379 18.1446C15.4097 18.0999 15.3933 18.0487 15.3901 17.9959C15.3869 17.9431 15.3971 17.8904 15.4198 17.8426L17.7499 12.9271C17.7753 12.8735 17.8153 12.8282 17.8654 12.7964C17.9154 12.7645 17.9735 12.7475 18.0328 12.7473H23.9671C24.0265 12.7475 24.0845 12.7645 24.1345 12.7964C24.1846 12.8282 24.2246 12.8735 24.25 12.9271L26.5801 17.8426C26.6028 17.8904 26.613 17.9431 26.6098 17.9959C26.6066 18.0487 26.5902 18.0999 26.562 18.1446C26.5338 18.1894 26.4947 18.2263 26.4484 18.252C26.4022 18.2776 26.3502 18.2912 26.2973 18.2914V18.2914ZM16.1995 17.6628H25.8004L23.7685 13.3759H18.2314L16.1995 17.6628Z" fill="#D88151"/>
<defs>
<linearGradient id="paint0_linear" x1="0" y1="0" x2="42" y2="42" gradientUnits="userSpaceOnUse">
<stop stop-color="#FFBB95"/>
<stop offset="1" stop-color="#FFF6F1"/>
</linearGradient>
</defs>
</svg>
