<svg width="40" height="40" viewBox="0 0 40 40" fill="none" xmlns="http://www.w3.org/2000/svg">
<path d="M19.9276 2.39136H25.7609C26.527 2.39136 27.2854 2.54225 27.9933 2.8354C28.7011 3.12855 29.3441 3.55823 29.8857 4.0999C30.4274 4.64157 30.8572 5.28464 31.1502 5.99238C31.4435 6.7001 31.5944 7.45864 31.5944 8.22468C31.5944 8.99073 31.4435 9.74927 31.1502 10.457C30.8572 11.1647 30.4274 11.8078 29.8857 12.3495C29.3441 12.8912 28.7011 13.3208 27.9933 13.614C27.2854 13.9071 26.527 14.058 25.7609 14.058H19.9276V2.39136Z" stroke="#007BFF" stroke-width="3" stroke-linecap="round" stroke-linejoin="round"/>
<path d="M19.9276 25.7971H25.7609C26.527 25.7971 27.2854 25.948 27.9933 26.241C28.7011 26.5343 29.3441 26.9639 29.8857 27.5056C30.4274 28.0473 30.8572 28.6904 31.1502 29.398C31.4435 30.1058 31.5944 30.8643 31.5944 31.6304C31.5944 32.3965 31.4435 33.1549 31.1502 33.8628C30.8572 34.5704 30.4274 35.2134 29.8857 35.7552C29.3441 36.2969 28.7011 36.7265 27.9933 37.0197C27.2854 37.3128 26.527 37.4636 25.7609 37.4636H19.9276" stroke="#007BFF" stroke-width="3" stroke-linecap="round" stroke-linejoin="round"/>
<path d="M8.26086 19.8913C8.26086 18.3442 8.87545 16.8605 9.96941 15.7665C11.0634 14.6726 12.5471 14.058 14.0942 14.058H19.9275V25.7246H14.0942C12.5471 25.7246 11.0634 25.1101 9.96941 24.0161C8.87545 22.9222 8.26086 21.4384 8.26086 19.8913Z" stroke="#007BFF" stroke-width="3" stroke-linecap="round" stroke-linejoin="round"/>
</svg>
